<svg width="801" height="801" viewBox="0 0 801 801" fill="none" xmlns="http://www.w3.org/2000/svg">
<path d="M638.733 347.4L433.887 74.6934C431.208 69.2935 426.464 65.012 420.481 63.0171C417.994 62.1887 415.441 61.8125 412.919 61.839C410.385 61.8092 407.822 62.1837 405.323 63.0171C399.34 65.0137 394.597 69.2968 391.917 74.6934L162.393 380.258C156.952 387.501 156.236 397.25 160.557 405.21C164.625 412.706 172.457 417.317 180.901 417.317C181.426 417.317 181.955 417.299 182.482 417.264L298.605 409.347C311.363 408.477 321 397.429 320.132 384.671C319.263 371.912 308.217 362.287 295.455 363.144L229.802 367.619L389.5 155.016V378.368C389.5 384.838 392.207 391.015 396.968 395.397C401.261 399.353 406.866 401.521 412.655 401.521C413.285 401.521 413.92 401.497 414.554 401.442L622.117 384.377C630.52 383.688 637.886 378.482 641.341 370.791C644.797 363.101 643.796 354.142 638.733 347.4ZM436.308 353.193V155.019L576.509 341.667L436.308 353.193Z" fill="black"/>
<path fill-rule="evenodd" clip-rule="evenodd" d="M662.628 419.395C669.07 418.865 675.454 421.055 680.214 425.441C684.974 429.825 687.682 436 687.682 442.471V508.758L775.283 500.68C783.838 499.903 792.131 503.906 796.816 511.107C801.502 518.308 801.817 527.513 797.628 535.02C761.962 598.948 699.538 730.632 687.411 730.729C675.284 730.826 109.407 743.888 89.789 738.055C70.171 732.223 22.6129 633.161 4.49028 606.15C-0.061216 599.364 -0.70114 590.683 2.80643 583.303C6.31412 575.923 13.4527 570.94 21.5898 570.19L641.372 513.033V467.61L138.494 508.954C125.778 510.014 114.569 500.52 113.52 487.773C112.472 475.027 121.955 463.848 134.7 462.799L662.628 419.395ZM666.896 557.18H666.884L64.6657 612.718L128.74 708.216L657.121 689.806L735.777 550.83L666.896 557.18Z" fill="black"/>
</svg>
