<svg width="200" height="37" viewBox="0 0 200 37" fill="none" xmlns="http://www.w3.org/2000/svg">
<g clip-path="url(#clip0_64_90)">
<path d="M172.057 8.65674L166.668 0.844238L161.279 8.65674C158.216 13.0958 154.118 16.7739 149.348 19.3356C144.578 21.8981 139.149 23.3477 133.332 23.3477C127.516 23.3477 122.09 21.8977 117.317 19.3356C112.55 16.7735 108.452 13.0958 105.389 8.65674L100 0.844238L94.6109 8.65674C91.5488 13.0958 87.4508 16.7739 82.684 19.3356C77.9105 21.8981 72.4848 23.3477 66.6684 23.3477C60.852 23.3477 55.423 21.8977 50.6527 19.3356C45.8824 16.7735 41.7844 13.0958 38.7219 8.65674L33.3328 0.844238L27.9438 8.65674C24.8805 13.0958 20.7859 16.7735 16.0156 19.3356C11.2453 21.8981 5.81641 23.3477 0 23.3477V36.4438C8.01133 36.4438 15.6016 34.4243 22.2125 30.8692C26.3273 28.6575 30.0715 25.8575 33.332 22.5731C36.5961 25.8571 40.3367 28.6575 44.4516 30.8692C51.0656 34.4243 58.6531 36.4438 66.6676 36.4438C74.6785 36.4438 82.266 34.4243 88.8801 30.8692C92.9949 28.6575 96.7391 25.8575 99.9996 22.5731C103.26 25.8571 107.004 28.6575 111.119 30.8692C117.733 34.4243 125.32 36.4438 133.332 36.4438C141.346 36.4438 148.933 34.4243 155.548 30.8692C159.662 28.6575 163.403 25.8575 166.667 22.5731C169.928 25.8571 173.672 28.6575 177.787 30.8692C184.398 34.4243 191.988 36.4438 199.999 36.4438V23.3477C194.183 23.3477 188.754 21.8977 183.984 19.3356C179.214 16.7735 175.119 13.0958 172.057 8.65674Z" fill="black"/>
</g>
<defs>
<clipPath id="clip0_64_90">
<rect width="200" height="37" fill="white"/>
</clipPath>
</defs>
</svg>
