<svg width="1440" height="320" viewBox="0 0 1440 320" fill="none" xmlns="http://www.w3.org/2000/svg">
<g clip-path="url(#clip0_65_100)">
<path d="M0 288L48 272C96 256 192 224 288 197.3C384 171 480 149 576 165.3C672 181 768 235 864 250.7C960 267 1056 245 1152 250.7C1248 256 1344 288 1392 304L1440 320H1392C1344 320 1248 320 1152 320C1056 320 960 320 864 320C768 320 672 320 576 320C480 320 384 320 288 320C192 320 96 320 48 320H0V288Z" fill="#0099FF"/>
<path d="M516.029 251.906L513.334 248L510.639 251.906C509.108 254.126 507.059 255.965 504.674 257.246C502.289 258.527 499.574 259.252 496.666 259.252C493.758 259.252 491.045 258.527 488.658 257.246C486.275 255.965 484.226 254.126 482.695 251.906L480 248L477.305 251.906C475.774 254.126 473.725 255.965 471.342 257.246C468.955 258.527 466.242 259.252 463.334 259.252C460.426 259.252 457.712 258.527 455.326 257.246C452.941 255.965 450.892 254.126 449.361 251.906L446.666 248L443.972 251.906C442.44 254.126 440.393 255.965 438.008 257.246C435.623 258.527 432.908 259.252 430 259.252V265.8C434.006 265.8 437.801 264.79 441.106 263.012C443.164 261.907 445.036 260.507 446.666 258.864C448.298 260.506 450.168 261.907 452.226 263.012C455.533 264.79 459.327 265.8 463.334 265.8C467.339 265.8 471.133 264.79 474.44 263.012C476.497 261.907 478.37 260.507 480 258.864C481.63 260.506 483.502 261.907 485.56 263.012C488.867 264.79 492.66 265.8 496.666 265.8C500.673 265.8 504.467 264.79 507.774 263.012C509.831 261.907 511.702 260.507 513.334 258.864C514.964 260.506 516.836 261.907 518.893 263.012C522.199 264.79 525.994 265.8 530 265.8V259.252C527.091 259.252 524.377 258.527 521.992 257.246C519.607 255.965 517.559 254.126 516.029 251.906Z" fill="black"/>
<path d="M516.029 233.906L513.334 230L510.639 233.906C509.108 236.126 507.059 237.965 504.674 239.246C502.289 240.527 499.574 241.252 496.666 241.252C493.758 241.252 491.045 240.527 488.658 239.246C486.275 237.965 484.226 236.126 482.695 233.906L480 230L477.305 233.906C475.774 236.126 473.725 237.965 471.342 239.246C468.955 240.527 466.242 241.252 463.334 241.252C460.426 241.252 457.712 240.527 455.326 239.246C452.941 237.965 450.892 236.126 449.361 233.906L446.666 230L443.972 233.906C442.44 236.126 440.393 237.965 438.008 239.246C435.623 240.527 432.908 241.252 430 241.252V247.8C434.006 247.8 437.801 246.79 441.106 245.012C443.164 243.907 445.036 242.507 446.666 240.864C448.298 242.506 450.168 243.907 452.226 245.012C455.533 246.79 459.327 247.8 463.334 247.8C467.339 247.8 471.133 246.79 474.44 245.012C476.497 243.907 478.37 242.507 480 240.864C481.63 242.506 483.502 243.907 485.56 245.012C488.867 246.79 492.66 247.8 496.666 247.8C500.673 247.8 504.467 246.79 507.774 245.012C509.831 243.907 511.702 242.507 513.334 240.864C514.964 242.506 516.836 243.907 518.893 245.012C522.199 246.79 525.994 247.8 530 247.8V241.252C527.091 241.252 524.377 240.527 521.992 239.246C519.607 237.965 517.559 236.126 516.029 233.906Z" fill="black"/>
<path d="M410.25 247.75L548.25 237.25L530.25 270.25L425.25 271.75L410.25 247.75Z" fill="#D9D9D9"/>
<path d="M468 169.75L483 154L518.25 205.75L438 211L468 169.75Z" fill="#D9D9D9"/>
<path d="M524.657 201.543L486.248 150.41C485.746 149.398 484.856 148.595 483.734 148.221C483.268 148.066 482.789 147.995 482.316 148C481.841 147.995 481.361 148.065 480.892 148.221C479.77 148.596 478.881 149.399 478.379 150.41L435.343 207.704C434.323 209.062 434.188 210.89 434.999 212.382C435.761 213.788 437.23 214.652 438.813 214.652C438.912 214.652 439.011 214.649 439.109 214.642L460.883 213.158C463.275 212.995 465.082 210.923 464.919 208.531C464.756 206.139 462.685 204.334 460.292 204.495L447.982 205.334L477.925 165.471V207.349C477.925 208.563 478.433 209.721 479.326 210.543C480.131 211.284 481.182 211.691 482.267 211.691C482.385 211.691 482.504 211.686 482.623 211.676L521.541 208.476C523.117 208.347 524.498 207.371 525.146 205.929C525.794 204.487 525.606 202.807 524.657 201.543ZM486.702 202.629V165.472L512.99 200.468L486.702 202.629Z" fill="black"/>
<path fill-rule="evenodd" clip-rule="evenodd" d="M529.137 215.041C530.345 214.942 531.542 215.353 532.435 216.175C533.327 216.997 533.835 218.155 533.835 219.368V231.797L550.26 230.282C551.864 230.137 553.419 230.887 554.297 232.237C555.176 233.588 555.235 235.314 554.45 236.721C547.762 248.708 536.058 273.398 533.784 273.417C531.51 273.435 425.408 275.884 421.73 274.79C418.051 273.697 409.134 255.123 405.736 250.058C404.883 248.786 404.763 247.158 405.421 245.774C406.078 244.391 407.417 243.456 408.942 243.316L525.152 232.599V224.082L430.862 231.834C428.478 232.033 426.376 230.252 426.179 227.862C425.983 225.472 427.761 223.376 430.151 223.18L529.137 215.041ZM529.937 240.876H529.935L417.019 251.29L429.033 269.195L528.105 265.743L542.853 239.685L529.937 240.876Z" fill="black"/>
<path d="M516.029 269.906L513.334 266L510.639 269.906C509.108 272.126 507.059 273.965 504.674 275.246C502.289 276.527 499.574 277.252 496.666 277.252C493.758 277.252 491.045 276.527 488.658 275.246C486.275 273.965 484.226 272.126 482.695 269.906L480 266L477.305 269.906C475.774 272.126 473.725 273.965 471.342 275.246C468.955 276.527 466.242 277.252 463.334 277.252C460.426 277.252 457.712 276.527 455.326 275.246C452.941 273.965 450.892 272.126 449.361 269.906L446.666 266L443.972 269.906C442.44 272.126 440.393 273.965 438.008 275.246C435.623 276.527 432.908 277.252 430 277.252V283.8C434.006 283.8 437.801 282.79 441.106 281.012C443.164 279.907 445.036 278.507 446.666 276.864C448.298 278.506 450.168 279.907 452.226 281.012C455.533 282.79 459.327 283.8 463.334 283.8C467.339 283.8 471.133 282.79 474.44 281.012C476.497 279.907 478.37 278.507 480 276.864C481.63 278.506 483.502 279.907 485.56 281.012C488.867 282.79 492.66 283.8 496.666 283.8C500.673 283.8 504.467 282.79 507.774 281.012C509.831 279.907 511.702 278.507 513.334 276.864C514.964 278.506 516.836 279.907 518.893 281.012C522.199 282.79 525.994 283.8 530 283.8V277.252C527.091 277.252 524.377 276.527 521.992 275.246C519.607 273.965 517.559 272.126 516.029 269.906Z" fill="black"/>
</g>
<defs>
<clipPath id="clip0_65_100">
<rect width="1440" height="320" fill="white"/>
</clipPath>
</defs>
</svg>
